<svg width="17" height="17" viewBox="0 0 17 17" fill="none" xmlns="http://www.w3.org/2000/svg">
<path d="M16.6187 13.4156L13.9934 10.79C13.4706 10.2692 12.6045 10.2852 12.0634 10.8263L10.7408 12.1489C10.6573 12.1026 10.5708 12.0545 10.4798 12.0035C9.64466 11.5407 8.50143 10.9064 7.29838 9.70255C6.09197 8.49622 5.45683 7.35115 4.9928 6.51538C4.94354 6.42677 4.89672 6.34151 4.85048 6.26046L5.73819 5.37392L6.17454 4.93699C6.71661 4.39491 6.73163 3.5291 6.2097 3.00691L3.58432 0.380952C3.06272 -0.140649 2.19632 -0.12479 1.65425 0.417286L0.914307 1.16142L0.934698 1.18156C0.686652 1.49808 0.479137 1.86327 0.325073 2.25699C0.182757 2.63174 0.0941456 2.98946 0.0536158 3.34768C-0.292943 6.22169 1.02029 8.84815 4.58439 12.4126C9.51099 17.3388 13.4814 16.9668 13.6526 16.9485C14.0259 16.904 14.3832 16.8148 14.7466 16.6737C15.137 16.5211 15.5019 16.3142 15.8181 16.0667L15.8343 16.0808L16.5839 15.3468C17.1248 14.8049 17.1404 13.939 16.6187 13.4156ZM16.0007 14.7632L15.6703 15.0929L15.5388 15.2194C15.3316 15.4197 14.9729 15.701 14.4492 15.9059C14.1519 16.0203 13.8588 16.0938 13.5606 16.1293C13.5231 16.1329 9.78874 16.4516 5.16691 11.8301C1.23712 7.90044 0.607355 5.63606 0.871344 3.44292C0.904406 3.15225 0.977326 2.85973 1.09388 2.55404C1.30047 2.02732 1.58158 1.66901 1.78037 1.46149L2.23711 1.00023C2.45721 0.779536 2.80049 0.76267 3.00172 0.963892L5.62701 3.58918C5.82789 3.79066 5.81203 4.13394 5.5916 4.3553L3.81861 6.12653L3.98224 6.40193C4.0732 6.55541 4.16936 6.72743 4.27207 6.9143C4.75977 7.79387 5.42704 8.99785 6.71569 10.2853C8.00098 11.5713 9.20319 12.238 10.0801 12.7244C10.2696 12.8292 10.4426 12.9256 10.5978 13.0181L10.8738 13.1817L12.6456 11.4093C12.8666 11.1892 13.2111 11.173 13.4123 11.3736L16.0364 13.9983C16.2371 14.1994 16.2211 14.5427 16.0007 14.7632Z" fill="white"/>
</svg>
